<svg height="20.12" viewBox="0 0 94.4 20.12" width="94.4" xmlns="http://www.w3.org/2000/svg"><g fill="#fff"><g transform="translate(-6 -9)"><path d="m13.37 12 1.71-2.86a1.59 1.59 0 0 0 -.65-.14 1.7 1.7 0 0 0 -1.7 1.7 1.67 1.67 0 0 0 .64 1.3"/><path d="m25 20.47-.46-.3a7.34 7.34 0 0 0 -1.54-4.12l-1.19.15.08-.12a1 1 0 0 0 -.28-1.42l-.66-.44a1 1 0 0 0 -1.41.28l-.1.14-.53-3.17-3.22-2-1.69 2.89.85.47-6.15-.78-.89 1.33 3.71 2.48a6.14 6.14 0 0 0 -.48.63c-.14.22-.27.45-.4.68l-3.7-2.48-.94 1.31 4.8 8.4a4.76 4.76 0 0 0 .31.47l1.6-.21-.3.45a1 1 0 0 0 .28 1.41l.67.45a1 1 0 0 0 1.41-.29l.25-.37.18 1.42a7.44 7.44 0 0 0 4.21-.1l.59.37a7.55 7.55 0 0 0 5-7.53"/><path d="m17.28 18.91a2 2 0 1 0 -2.28 3.38 2 2 0 0 0 2.26-3.38"/></g><text font-family="BebasNeue, Bebas Neue" font-size="19" transform="translate(29 16.39)"><tspan letter-spacing="-.01em">F</tspan><tspan x="6.29" y="0">alcon Air</tspan></text></g></svg>