<svg height="12.51" viewBox="0 0 108.76 12.51" width="108.76" xmlns="http://www.w3.org/2000/svg"><g fill="#a0a09f"><path d="m103 9.86a6.07 6.07 0 0 1 2.82-4.86s.05 0 0 0-2.67 3.12-.34 5.47c0 0 1.22 1.18 2.17.06a2.86 2.86 0 0 0 0-3 2.07 2.07 0 0 0 -1.1-1l.69-.76a2.69 2.69 0 0 1 1 .93 2.68 2.68 0 0 0 -.53-1.49l1.15-1.21 1.07 1.21a3.15 3.15 0 0 0 -.53 1.51 2.91 2.91 0 0 1 1-.94l.69.76a2.24 2.24 0 0 0 -1.1 1 3.15 3.15 0 0 0 0 3.08s.77 1.09 2.12-.06c0 0 2.49-2.23-.26-5.46 0 0-.15-.13 0-.06a5.88 5.88 0 0 1 2.82 5c-.06 3.53-2.42 6-5.87 6a5.92 5.92 0 0 1 -5.8-6.18" transform="translate(-6 -4)"/><text font-family="BebasNeue, Bebas Neue" font-size="11" transform="translate(0 10.35)">A Rebel Alliance Member</text></g></svg>